<?xml version="1.0" encoding="UTF-8"?>
<svg id="Layer_2" data-name="Layer 2" xmlns="http://www.w3.org/2000/svg" viewBox="0 0 365.6 87.6">
  <defs>
    <style>
      .cls-1 {
        fill: #fff;
      }

      .cls-2 {
        fill: #f45d01;
      }
    </style>
  </defs>
  <g id="Layer_14" data-name="Layer 14">
    <g>
      <rect class="cls-2" width="87.6" height="87.6" rx="16.7" ry="16.7"/>
      <g>
        <path class="cls-1" d="M41.9,36h-22.5c-.3,0-.6-.1-.9-.4l-11.2-11.2c-.8-.8-.2-2.1.9-2.1h23l11.6,11.6c.8.8.2,2.1-.9,2.1Z"/>
        <path class="cls-1" d="M74.2,65.3h-22.5c-2.3,0-4.4-.9-6-2.5l-23.6-23.6h22.5c2.3,0,4.4.9,6,2.5l23.6,23.6Z"/>
        <path class="cls-1" d="M76.6,36h-22.5c-2.3,0-4.4-.9-6-2.5l-11.2-11.2h21.6c2.8,0,5.6,1.1,7.6,3.1l10.5,10.5Z"/>
        <path class="cls-1" d="M80.3,47.4l-7.5-7.5c-.4-.4-.9-.6-1.5-.6h-15.7c-1.1,0-1.6,1.3-.9,2.1l7.5,7.5c.4.4.9.6,1.5.6h15.7c1.1,0,1.6-1.3.9-2.1Z"/>
      </g>
    </g>
    <g>
      <path class="cls-1" d="M98.3,76.1V10.5h46.7v10.1h-35.4v18.1h32.9v10.1h-32.9v27.3h-11.3Z"/>
      <path class="cls-1" d="M148.7,76.1V10.5h11.3v55.5h33.6v10.1h-44.9Z"/>
      <path class="cls-1" d="M194.8,76.1l26.9-65.6h11.3l27,65.6h-11.7l-6.7-16.2h-28.5l-6.7,16.2h-11.7ZM217.2,50h20.4l-10.2-24.9-10.3,24.9Z"/>
      <path class="cls-1" d="M261,76.1V10.5h32.2c12.5,0,21.2,7.6,21.2,18.6s-5.7,14.7-14.5,17c4.3.8,7.4,3.5,9,7.5l8.5,22.6h-12.1l-7.6-20.7c-.9-2.6-3.1-4-6.1-4h-19.3v24.7h-11.3ZM272.3,41.4h20.3c7,0,10.6-5,10.6-10.7s-4.1-10.1-10.6-10.1h-20.3v20.8Z"/>
      <path class="cls-1" d="M318.6,76.1V10.5h46.2v10.1h-34.9v16.9h31.6v9.8h-31.6v18.6h35.8v10.1h-47Z"/>
    </g>
  </g>
</svg>