<?xml version="1.0" encoding="UTF-8"?>
<svg id="Layer_2" data-name="Layer 2" xmlns="http://www.w3.org/2000/svg" viewBox="0 0 85.5 90.1">
  <defs>
    <style>
      .cls-1 {
        fill: #fff;
      }
    </style>
  </defs>
  <g id="Layer_1-2" data-name="Layer 1">
    <path class="cls-1" d="M33.2,33.1h-11.6c-2,0-3.6-1.6-3.6-3.6V7.3C18,3.3,14.8,0,10.8,0h-3.6C3.2,0,0,3.3,0,7.3v75.6c0,4,3.2,7.2,7.2,7.2h26c4,0,7.2-3.3,7.2-7.2v-42.6c0-4-3.2-7.2-7.2-7.2ZM22.5,70c0,1.1-.9,2.1-2.1,2.1h-.4c-1.1,0-2.1-.9-2.1-2.1v-22.1c0-1.1.9-2.1,2.1-2.1h.4c1.1,0,2.1.9,2.1,2.1v22.1Z"/>
    <rect class="cls-1" x="67.5" y="72.1" width="18" height="18" rx="7.2" ry="7.2"/>
    <rect class="cls-1" x="45.2" width="18" height="90" rx="7.2" ry="7.2"/>
  </g>
</svg>