<?xml version="1.0" encoding="UTF-8"?>
<svg id="Layer_2" data-name="Layer 2" xmlns="http://www.w3.org/2000/svg" viewBox="0 0 210.8 74.2">
  <defs>
    <style>
      .cls-1 {
        fill: #715fa9;
      }

      .cls-2 {
        fill: #ef3f3d;
      }

      .cls-3 {
        fill: #fff;
      }

      .cls-4 {
        fill: #47b1e5;
      }

      .cls-5 {
        fill: #4ab96f;
      }

      .cls-6 {
        fill: #f3723d;
      }
    </style>
  </defs>
  <g id="Layer_1-2" data-name="Layer 1">
    <g>
      <polygon class="cls-3" points="99.3 54.3 104.6 54.3 104.6 24.7 99.3 24.7 99.3 54.3"/>
      <path class="cls-3" d="M208,26.5c-1.9-1.8-4.6-2.7-8.1-2.7s-4.6.4-6.4,1.3c-1.8.8-3.2,2-4.3,3.6-1.1,1.5-1.7,3.3-1.9,5.4l5.3.7c.2-2,.9-3.6,2.1-4.7,1.2-1.1,2.9-1.7,5.1-1.7s3.1.4,4.1,1.3c1,.8,1.6,1.9,1.6,3.3h0c0,1.2-.3,2-.8,2.6-.5.6-1.5,1-2.9,1.3l-7,1.4c-2.7.5-4.7,1.5-6.1,2.9-1.4,1.4-2.1,3.2-2.1,5.4s.4,3.2,1.3,4.5c.9,1.3,2.1,2.3,3.6,3,1.6.8,3.3,1.1,5.3,1.1s4.1-.5,5.7-1.4c1.6-1,2.6-2.1,3.2-3.4v3.9h5.2v-21c0-2.8-.9-5.1-2.8-6.9ZM204.4,47.3c-.7,1.1-1.6,2-2.9,2.6-1.2.6-2.5,1-3.9,1s-3.1-.4-4.2-1.2c-1-.8-1.5-1.8-1.5-3.2s.4-2.3,1.1-3c.8-.7,1.8-1.2,3.2-1.5l9.3-2v3.3c0,1.5-.4,2.8-1.1,3.9Z"/>
      <polygon class="cls-3" points="68.8 12.5 68.8 54.3 74.4 54.3 74.4 36.6 92.8 36.6 92.8 31.6 74.4 31.6 74.4 17.6 95 17.6 95 12.5 68.8 12.5"/>
      <rect class="cls-3" x="99.2" y="12.5" width="5.4" height="8.4"/>
      <path class="cls-3" d="M172.1,23.8c-1.7,0-3.3.4-4.8,1.2-1.4.8-2.3,1.9-2.9,3.3-.4-1.5-1.4-2.6-2.9-3.4-1.5-.8-3.1-1.1-4.8-1.1s-3.4.4-4.7,1.2c-1.4.8-2.2,1.8-2.6,3v-3.3h-5.2v29.6h5.3v-18.3c0-2.4.5-4.2,1.4-5.4,1-1.3,2.4-1.9,4.2-1.9s2.9.5,3.7,1.5c.9,1,1.3,2.5,1.3,4.5v19.6h5.3v-18.3c0-2.4.5-4.2,1.4-5.4,1-1.3,2.4-1.9,4.2-1.9s2.9.5,3.7,1.5c.9,1,1.3,2.5,1.3,4.5v19.6h5.3v-20.3c0-3.3-.8-5.9-2.4-7.6-1.6-1.7-3.9-2.6-6.9-2.6Z"/>
      <path class="cls-3" d="M132.1,28.4c-.6-1.3-1.7-2.4-3.4-3.3-1.6-.9-3.4-1.4-5.4-1.4s-5,.6-7,1.8c-1.9,1.2-3.5,2.9-4.6,5.1-1.1,2.2-1.7,4.7-1.7,7.6s.6,5.4,1.7,7.6c1.1,2.2,2.7,3.9,4.6,5.1,2,1.2,4.3,1.8,6.9,1.8s3.8-.5,5.4-1.4c1.6-.9,2.7-2.1,3.3-3.6v4.7c0,2.6-.7,4.6-2,5.9-1.3,1.3-3.3,2-5.9,2s-4-.6-5.4-1.7c-1.4-1.1-2.4-2.6-2.8-4.5l-5.2,1.1c.6,3.1,2.1,5.4,4.4,7.1,2.3,1.7,5.3,2.6,9,2.6s5.2-.5,7.1-1.5c2-1,3.5-2.4,4.5-4.3,1-1.9,1.5-4.1,1.5-6.7v-27.9h-5.2v3.8ZM130,45.4c-1.5,1.8-3.5,2.7-6.1,2.7s-4.5-.9-6.1-2.7-2.3-4.1-2.3-7.1.8-5.4,2.3-7.1c1.5-1.8,3.6-2.7,6.1-2.7s4.5.9,6.1,2.7,2.3,4.2,2.3,7.1-.8,5.3-2.3,7.1Z"/>
    </g>
    <g>
      <path class="cls-5" d="M0,61.9c0-6.8,5.5-12.4,12.4-12.4h12.4v12.4c0,6.8-5.5,12.4-12.4,12.4S0,68.7,0,61.9Z"/>
      <path class="cls-6" d="M24.7,0v24.7h12.4c6.8,0,12.4-5.5,12.4-12.4S44,0,37.1,0h-12.4Z"/>
      <path class="cls-4" d="M37,49.5c6.8,0,12.4-5.5,12.4-12.4s-5.5-12.4-12.4-12.4-12.4,5.5-12.4,12.4,5.5,12.4,12.4,12.4Z"/>
      <path class="cls-2" d="M0,12.4c0,6.8,5.5,12.4,12.4,12.4h12.4V0h-12.4C5.5,0,0,5.5,0,12.4Z"/>
      <path class="cls-1" d="M0,37.1c0,6.8,5.5,12.4,12.4,12.4h12.4v-24.7h-12.4c-6.8,0-12.4,5.5-12.4,12.4Z"/>
    </g>
  </g>
</svg>