<?xml version="1.0" encoding="UTF-8"?>
<svg id="Layer_2" data-name="Layer 2" xmlns="http://www.w3.org/2000/svg" viewBox="0 0 370.9 61">
  <defs>
    <style>
      .cls-1 {
        fill: #f6f6f6;
      }

      .cls-2 {
        fill: #c5773c;
      }

      .cls-3 {
        fill: #ffa573;
      }

      .cls-4 {
        fill: #ccc;
      }

      .cls-5 {
        fill: #fff;
      }

      .cls-6 {
        fill: #090909;
        stroke: #fff;
      }

      .cls-7 {
        fill: #88d388;
      }

      .cls-8 {
        fill: #8bbd8b;
      }
    </style>
  </defs>
  <g id="Layer_2-2" data-name="Layer 2">
    <g id="Logo">
      <g id="Logo_With_Wordmark" data-name="Logo With Wordmark">
        <g>
          <path class="cls-5" d="M90.4,50.4V16.8h4.6v29.5h15.4v4.1s-20,0-20,0Z"/>
          <path class="cls-5" d="M122.9,51c-2.4,0-4.5-.5-6.4-1.7s-3.4-2.6-4.4-4.6-1.6-4.2-1.6-6.8.5-5,1.6-7,2.6-3.5,4.5-4.5c1.9-1.1,4-1.6,6.3-1.6s4.4.5,6.3,1.6c1.9,1.1,3.4,2.5,4.5,4.5,1.1,1.9,1.7,4.2,1.7,6.9s-.5,5-1.6,6.9c-1.1,2-2.6,3.5-4.4,4.6-1.9,1.1-4,1.6-6.4,1.6h0ZM122.9,47.2c2.5,0,4.5-.9,5.9-2.6,1.4-1.7,2.1-3.9,2.1-6.7s-.4-3.2-1.1-4.6c-.7-1.4-1.7-2.5-2.9-3.4s-2.6-1.3-4.1-1.3c-2.5,0-4.5.8-5.9,2.5-1.4,1.7-2.1,3.9-2.1,6.6s.3,3.2,1.1,4.6c.7,1.4,1.7,2.6,2.9,3.4s2.6,1.3,4.1,1.3v.2Z"/>
          <path class="cls-5" d="M149.2,51c-2.4,0-4.4-.5-6.2-1.7s-3.1-2.6-4.1-4.6-1.4-4.2-1.4-6.8.5-4.6,1.5-6.6c1-2,2.4-3.6,4.2-4.7,1.8-1.2,4-1.8,6.4-1.8s2.6.1,3.7.4c1.1.3,2.1.6,3.1,1.1l-1.3,3.6c-.9-.5-1.8-.8-2.6-1s-1.7-.3-2.7-.3c-2.2,0-4.1.8-5.6,2.4-1.5,1.6-2.3,3.8-2.3,6.7s.3,3.3,1,4.7c.6,1.4,1.5,2.5,2.7,3.4,1.1.8,2.5,1.2,4,1.2s2.3,0,3.1-.4,1.8-.7,2.8-1.2l1.3,3.7c-1,.5-2.1,1-3.3,1.3s-2.6.5-4.2.5h0Z"/>
          <path class="cls-5" d="M167.8,51c-2.1,0-4-.5-5.7-1.6s-3.1-2.5-4.1-4.5-1.5-4.2-1.5-6.8.5-4.7,1.5-6.7,2.4-3.6,4.2-4.7,3.8-1.8,6.1-1.8,2.7.2,3.9.7,2.2,1.1,3.1,1.9v-2h3.9v18.9c0,1.2.3,2,.9,2.4.6.4,1.2.5,1.9.5l-.9,3.4c-3.1,0-4.9-1.2-5.6-3.7-.7,1-1.7,2-3,2.8s-2.9,1.3-4.8,1.3h.1ZM168.8,47.2c1.2,0,2.4-.3,3.5-.9,1.1-.6,2-1.3,2.7-2.2v-13.4c-.9-.6-1.8-1.1-2.9-1.5-1-.4-2.1-.5-3.3-.5s-2.9.4-4.1,1.2c-1.2.8-2.1,1.9-2.8,3.3s-1,3-1,4.9.3,3.4,1,4.8,1.6,2.5,2.8,3.3,2.5,1.2,4,1.2h0v-.2Z"/>
          <path class="cls-5" d="M192.5,51c-1.5,0-2.8-.3-4-.8s-2.1-1.5-2.8-2.7-1-2.9-1-4.8V14.9h4.3v27.3c0,1.7.4,3,1.1,3.8s1.7,1.2,3,1.2,1.2,0,1.8-.2c.6,0,1.1-.3,1.5-.5l1.1,3.5c-.6.3-1.3.5-2.1.7s-1.8.3-2.8.3h-.1Z"/>
          <path class="cls-5" d="M209.4,50.4V16.8h4.6v14.4h16.6v-14.4h4.6v33.6h-4.6v-15.3h-16.6v15.3s-4.6,0-4.6,0Z"/>
          <path class="cls-5" d="M249.8,51c-2.1,0-4-.5-5.7-1.6s-3.1-2.5-4.1-4.5-1.5-4.2-1.5-6.8.5-4.7,1.5-6.7,2.4-3.6,4.2-4.7,3.8-1.8,6.1-1.8,2.7.2,3.9.7,2.2,1.1,3,1.9v-2h3.9v18.9c0,1.2.3,2,.9,2.4s1.2.5,1.9.5l-.9,3.4c-3.1,0-4.9-1.2-5.6-3.7-.7,1-1.7,2-3,2.8s-2.9,1.3-4.8,1.3h.2ZM250.7,47.2c1.2,0,2.4-.3,3.5-.9,1.1-.6,2-1.3,2.7-2.2v-13.4c-.9-.6-1.8-1.1-2.9-1.5-1-.4-2.1-.5-3.3-.5s-2.9.4-4.1,1.2c-1.2.8-2.1,1.9-2.8,3.3s-1,3-1,4.9.3,3.4,1,4.8,1.6,2.5,2.8,3.3,2.5,1.2,4,1.2h0v-.2Z"/>
          <path class="cls-5" d="M266.8,50.4v-25h4.2v5.4c.4-1.1,1-2,1.7-3,.7-.9,1.6-1.6,2.6-2.2,1.1-.6,2.3-.8,3.7-.8s1,0,1.4,0,.9.1,1.2.2l-1.3,4.5c-.6-.3-1.3-.4-2.2-.4s-2.3.3-3.4,1-2,1.7-2.6,3.1-1,3.2-1,5.4v11.7h-4.3Z"/>
          <path class="cls-5" d="M293.7,50.4l-10-23.8,3.9-1.6,8.5,20.5,8.5-20.5,3.7,1.6-10.1,23.8h-4.5Z"/>
          <path class="cls-5" d="M319.6,51c-3.6,0-6.4-1.1-8.5-3.4-2.1-2.3-3.1-5.5-3.1-9.6s.5-4.7,1.4-6.7,2.3-3.5,4-4.7c1.7-1.1,3.7-1.7,5.9-1.7s4.4.5,6,1.6c1.6,1,2.8,2.4,3.6,4.2s1.2,3.7,1.2,5.8,0,2.2-.1,3.3h-17.5c.3,2.3,1.1,4.2,2.5,5.5,1.3,1.3,3.1,2,5.3,2s2.7-.2,3.9-.5c1.1-.3,2.3-.7,3.3-1.2l1,3.7c-1.1.5-2.5.9-3.9,1.3-1.4.3-3.1.5-4.9.5h0ZM312.3,36.2h13.7c0-2.4-.6-4.3-1.8-5.6-1.2-1.3-2.9-2-5-2s-3.4.6-4.6,1.9-2,3.2-2.2,5.6h-.1Z"/>
          <path class="cls-5" d="M340.4,51c-1.9,0-3.6-.2-5.1-.7s-2.8-1.1-3.8-1.9l1.8-3.6c.8.7,1.9,1.3,3.1,1.8s2.6.7,4.1.7,3.1-.3,4.1-.9c.9-.6,1.4-1.3,1.4-2.3s-.2-1.3-.5-1.8-1-1-1.9-1.5-2.2-1-3.9-1.6c-2.3-.8-4.1-1.8-5.3-2.9s-1.8-2.6-1.8-4.6.8-3.5,2.5-4.9c1.7-1.3,4-2,7-2s3,.2,4.3.5c1.2.3,2.4.8,3.4,1.3l-1.2,3.5c-.9-.5-1.9-.9-3-1.2s-2.3-.5-3.7-.5-2.9.3-3.8,1-1.3,1.4-1.3,2.2.3,1.4,1,2c.7.5,2,1.1,3.9,1.8,3.2,1.1,5.4,2.2,6.6,3.5s1.9,2.9,1.9,4.8-.9,4-2.7,5.3c-1.8,1.3-4.2,1.9-7.3,1.9h.2Z"/>
          <path class="cls-5" d="M364.9,51c-2.4,0-4.3-.8-5.7-2.4-1.4-1.6-2.1-3.8-2.1-6.8v-11.7h-4.3v-3.7h4.4l.9-7.9h3.3v7.9h6.9v3.7h-6.9v12.1c0,1.9.4,3.2,1.2,3.9.8.7,1.7,1.1,2.8,1.1s1.6,0,2.3-.4c.7-.3,1.4-.6,2-.9l1.2,3.5c-.6.4-1.5.8-2.6,1.1-1.1.4-2.2.5-3.4.5h0Z"/>
        </g>
        <g id="Logo-2">
          <g id="Carrot">
            <path class="cls-7" d="M61.7,1c-1.2.5-3.8,1-4.9,4.6-1,3.6-2.3,7.5-1.3,9.1s1.2,2.9,4.1,3,10.8-1.9,12.1-3.3,4-3.9,3.1-5.6-4.9-2-5.8-1.4-3.2,2.3-4.3,2.2-1.5,0-1.2-1.7.5-5.2,0-6-1.7-.9-1.7-.9h0Z"/>
            <path class="cls-8" d="M77.5,9.3c.2-.7,0-1.4-.5-1.9-1.6-1.3-6.7-.9-9.2.4-1,.5-1.8,1-2.7,1.4.9-2.4.8-5.1-.4-7.9h0c-.2-.7-.7-1.1-1.2-1.2-1.8-.5-5,1.8-5.3,2-1.2.9-3.2,7.7-3.1,11.5,1.2,1.9,2.5,3.9,3.8,5.5,14.3,1,18.1-8,18.7-9.9h-.1ZM57.7,13.5c0-2.5,1.5-8.1,2.2-9.3.8-.5,1.8-1.1,2.5-1.4h0c1.6,4.3,0,7.9-4.7,10.6h0ZM58.9,16.4c1.8-1.5,5.9-3.9,10.1-6.1,1.6-.8,4.1-1,5.4-.9-1.2,2.5-5,7.8-15.6,7h0Z"/>
            <path class="cls-3" d="M47.5,9.5s-2.6,1.1-4.5,2.7-9.1,9.7-10.9,12.3-6.9,13.3-2.8,14.4c4.1,1.1,14.1-5.6,15.4-5.7s10-2.1,11.4-2.9,5.4-2.4,4-4.9-8.2-14.8-12.5-15.9h-.1Z"/>
            <path class="cls-2" d="M55,13.7v.4c-2.4-3.3-4-4.9-5.9-5.2-2.2-.3-4.2,1.4-7.3,4.2-.2.2-.3.3-.5.5s-.4.5-.8.9c-12.7,13.9-17.2,21.5-14.7,24.9.2.3.5.5.8.8,2,1.4,7,1.4,21.6-5.6.7-.3,1.8-.4,3.1-.4s3.5-.2,5-1c3.3-1.6,5.4-2.7,6-4.9.5-2.1-.7-4.7-3.6-9h.2c-1.3-1.6-2.6-3.5-3.8-5.5h-.1ZM59.6,27.5c-.2,1-2,1.9-4.5,3.1h0c-1,.5-2.5.6-3.9.6s-2.9.1-4.1.7c-16.6,8-18.8,5.9-19,5.7-.2-.3-1.3-2.6,8.1-14l5.8,4.3-4.3-6.1c1.2-1.4,2.6-3,4.2-4.7l8.2,7.5-6.4-9.4s0-.1.2-.2c2.3-2.1,4.1-3.6,5.1-3.5,1.3.1,3.2,2.9,6.4,7.4,2.8,4.1,4.7,7.1,4.3,8.4h0v.2Z"/>
          </g>
          <g>
            <polygon class="cls-1" points="4.5 42.8 18.6 57 29.7 48.8 44.5 48.6 68.4 35.2 72.7 27.5 70.8 24.8 66.1 25.3 63.1 30.2 58.7 33.2 54.9 35.3 53 34.6 49.8 31.9 36.4 31.8 23.6 27.3 13.9 31.9 6.7 40.2 3.8 42.3 4.5 42.8"/>
            <polygon class="cls-4" points="7.5 40 4.5 42.8 18.1 56.8 22 53.3 7.5 40"/>
            <path class="cls-6" d="M72,24.1c-2.2-1.5-5.6-1.7-7.6.6-1.3,1.5-2,2.7-2.6,3.6s-.8,1.3-1.2,1.5c-.9.5-4.2,2.5-6.7,4-.2-.7-.6-1.4-1-1.9-1-1.3-2.5-2-4.2-2s-7.2-.1-11-.2h-2.5c-1.4,0-2.3-.6-4-1.5-.8-.5-1.8-1-3-1.6-4.6-2.2-10.5-.6-13.3,2.2-2.6,2.5-13.1,12.9-13.1,12.9h0l-1.1,1.3,17.3,17.3,1.2-1.1c.3-.2,6.2-6,7.7-7.5s2.1-1.3,2.8-1.3h14.1c.5,0,1.3,0,12.6-6.2,2.6-1.4,11.1-6.1,12.1-7.1.2-.2.4-.4.6-.6,1-.9,2.3-2,4.4-5.6,1.5-2.5.9-5.3-1.5-6.9h0ZM18.1,55.6l-12.7-12.7c.6-.6,1.4-1.4,2.3-2.2l12.7,12.7c-.9.8-1.7,1.6-2.3,2.2ZM70.7,29.4c-1.8,3.1-2.8,4-3.7,4.7-.3.3-.6.5-.8.7-1.4,1.2-20,11.4-22.5,12.3h-14c-1.2,0-3.1.2-5.1,2.2-.4.4-1,1-1.8,1.8l-12.7-12.7c2.9-2.9,6.1-6,7.3-7.2,2-2,6.4-3.1,9.6-1.6,1.1.5,2,1,2.8,1.5,1.9,1,3.4,1.9,5.5,1.9h2.5c3.8,0,9.5.3,11,.3s1.2.2,1.6.7c.4.5.6,1.2.6,1.9s-.5,2.9-2.3,2.9h-11.3c-1.6,0-2.9-.7-4.4-1.4-1.6-.8-3.2-1.6-5.1-1.6-3,0-3.6,0-4.4.3h-.3c-.9.2-1.5,1.1-1.3,2s1,1.5,1.9,1.3h.3c.6-.2,1.1-.3,3.8-.3s2.3.6,3.6,1.2c1.6.8,3.5,1.8,5.9,1.8h11.3c2.9,0,4.8-2.1,5.4-4.5,2.3-1.4,7.2-4.4,8.3-5,1.1-.6,1.7-1.6,2.4-2.6.5-.8,1.1-1.9,2.3-3.2.7-.9,2.2-.7,3.1,0,.7.5,1.3,1.3.5,2.6Z"/>
          </g>
        </g>
      </g>
    </g>
  </g>
</svg>